<?xml version="1.0" encoding="UTF-8" standalone="no"?>
<!-- Created with Inkscape (http://www.inkscape.org/) -->

<svg
   width="8.4666595mm"
   height="8.4666672mm"
   viewBox="0 0 8.4666595 8.4666672"
   version="1.1"
   id="svg5"
   xml:space="preserve"
   xmlns:inkscape="http://www.inkscape.org/namespaces/inkscape"
   xmlns:sodipodi="http://sodipodi.sourceforge.net/DTD/sodipodi-0.dtd"
   xmlns="http://www.w3.org/2000/svg"
   xmlns:svg="http://www.w3.org/2000/svg"><sodipodi:namedview
     id="namedview7"
     pagecolor="#ffffff"
     bordercolor="#000000"
     borderopacity="0.25"
     inkscape:showpageshadow="2"
     inkscape:pageopacity="0.0"
     inkscape:pagecheckerboard="0"
     inkscape:deskcolor="#d1d1d1"
     inkscape:document-units="mm"
     showgrid="false" /><defs
     id="defs2" /><g
     id="g11"
     transform="matrix(0.26458333,0,0,0.26458334,-5.0620426e-6,0)"><path
       d="M 19.766,8.372 6.927,8.392 4.834,11.729 17.652,11.725 19.766,8.372 m -5.545,12.146 c -0.151,0 -7.604,0.016 -8.114,0.016 0.249,-0.393 1.665,-2.611 1.738,-2.733 0.163,0 5.014,0 5.271,0 L 15.238,14.447 3.117,14.467 1.003,17.809 3.83,17.804 0,23.874 h 16.151 c 0.286,-0.453 5.654,-9.017 5.904,-9.412 0.219,0.334 1.664,2.623 1.9,3.002 -0.363,0 -1.682,0 -1.682,0 l -2.101,3.337 c 0,0 0.009,0 0.029,0 0.428,0 5.719,0 5.875,0 0.085,0.135 1.827,2.876 1.921,3.023 H 32 L 22.038,8.127 c -0.392,0.611 -7.727,12.247 -7.817,12.391"
       id="path9" /></g></svg>
